M48
; DRILL file {KiCad 9.0.7} date 2026-03-19T02:20:09+0900
; FORMAT={-:-/ absolute / inch / decimal}
; #@! TF.CreationDate,2026-03-19T02:20:09+09:00
; #@! TF.GenerationSoftware,Kicad,Pcbnew,9.0.7
; #@! TF.FileFunction,Plated,1,2,PTH
FMAT,2
INCH
; #@! TA.AperFunction,Plated,PTH,ViaDrill
T1C0.0120
; #@! TA.AperFunction,Plated,PTH,ViaDrill
T2C0.0160
; #@! TA.AperFunction,Plated,PTH,ComponentDrill
T3C0.0315
; #@! TA.AperFunction,Plated,PTH,ComponentDrill
T4C0.0394
%
G90
G05
T1
X5.19Y-3.34
X5.41Y-3.39
T2
X5.22Y-2.69
T3
X5.0245Y-2.5408
X5.0245Y-2.6408
X5.0245Y-2.7408
X5.0245Y-2.8408
X5.0245Y-2.9408
X5.0245Y-3.0408
X5.0245Y-3.1408
X5.0245Y-3.2408
X5.0245Y-3.3408
X5.0245Y-3.4408
X5.0245Y-3.5408
X5.0245Y-3.6408
X5.0245Y-3.7408
X5.0245Y-3.8408
X5.6245Y-2.5408
X5.6245Y-2.6408
X5.6245Y-2.7408
X5.6245Y-2.8408
X5.6245Y-2.9408
X5.6245Y-3.0408
X5.6245Y-3.1408
X5.6245Y-3.2408
X5.6245Y-3.3408
X5.6245Y-3.4408
X5.6245Y-3.5408
X5.6245Y-3.6408
X5.6245Y-3.7408
X5.6245Y-3.8408
T4
X3.8Y-2.8
X3.8Y-2.9
X3.8Y-3.0
X3.8Y-3.2
X3.8Y-3.3
X3.8Y-3.4
X3.8Y-3.6
X3.8Y-3.7
X3.8Y-3.8
X4.1Y-2.7335
X4.1Y-2.8335
X4.1Y-2.9335
X4.1Y-3.0335
X4.1Y-3.1335
X4.1Y-3.2335
X4.1Y-3.3335
X4.1Y-3.4335
X4.1Y-3.5335
X4.1Y-3.6335
X4.1Y-3.7335
X4.1Y-3.8335
X4.1Y-3.9335
X4.1Y-4.0335
X4.1Y-4.1335
X4.1Y-4.2335
X4.1Y-4.3335
X4.1Y-4.4335
X4.1Y-4.5335
X4.1Y-4.6335
X4.7Y-2.7335
X4.7Y-2.8335
X4.7Y-2.9335
X4.7Y-3.0335
X4.7Y-3.1335
X4.7Y-3.2335
X4.7Y-3.3335
X4.7Y-3.4335
X4.7Y-3.5335
X4.7Y-3.6335
X4.7Y-3.7335
X4.7Y-3.8335
X4.7Y-3.9335
X4.7Y-4.0335
X4.7Y-4.1335
X4.7Y-4.2335
X4.7Y-4.3335
X4.7Y-4.4335
X4.7Y-4.5335
X4.7Y-4.6335
X5.0Y-4.1
X5.1Y-4.1
X5.3Y-4.3
X5.4Y-4.1
X5.4Y-4.3
X5.5Y-4.1
X5.5Y-4.3
M30
