%TF.GenerationSoftware,KiCad,Pcbnew,9.0.7*%
%TF.CreationDate,2026-03-19T02:20:09+09:00*%
%TF.ProjectId,KiCad_HD63701ROMAdapter,4b694361-645f-4484-9436-33373031524f,rev?*%
%TF.SameCoordinates,Original*%
%TF.FileFunction,Legend,Bot*%
%TF.FilePolarity,Positive*%
%FSLAX46Y46*%
G04 Gerber Fmt 4.6, Leading zero omitted, Abs format (unit mm)*
G04 Created by KiCad (PCBNEW 9.0.7) date 2026-03-19 02:20:09*
%MOMM*%
%LPD*%
G01*
G04 APERTURE LIST*
G04 Aperture macros list*
%AMRoundRect*
0 Rectangle with rounded corners*
0 $1 Rounding radius*
0 $2 $3 $4 $5 $6 $7 $8 $9 X,Y pos of 4 corners*
0 Add a 4 corners polygon primitive as box body*
4,1,4,$2,$3,$4,$5,$6,$7,$8,$9,$2,$3,0*
0 Add four circle primitives for the rounded corners*
1,1,$1+$1,$2,$3*
1,1,$1+$1,$4,$5*
1,1,$1+$1,$6,$7*
1,1,$1+$1,$8,$9*
0 Add four rect primitives between the rounded corners*
20,1,$1+$1,$2,$3,$4,$5,0*
20,1,$1+$1,$4,$5,$6,$7,0*
20,1,$1+$1,$6,$7,$8,$9,0*
20,1,$1+$1,$8,$9,$2,$3,0*%
G04 Aperture macros list end*
%ADD10C,1.700000*%
%ADD11R,1.700000X1.700000*%
%ADD12O,2.400000X1.600000*%
%ADD13RoundRect,0.250000X-0.950000X-0.550000X0.950000X-0.550000X0.950000X0.550000X-0.950000X0.550000X0*%
%ADD14O,2.000000X1.440000*%
%ADD15R,2.000000X1.440000*%
G04 APERTURE END LIST*
%LPC*%
D10*
%TO.C,J3*%
X96520000Y-76200000D03*
X96520000Y-73660000D03*
D11*
X96520000Y-71120000D03*
%TD*%
D12*
%TO.C,U1*%
X142863000Y-64536000D03*
X142863000Y-67076000D03*
X142863000Y-69616000D03*
X142863000Y-72156000D03*
X142863000Y-74696000D03*
X142863000Y-77236000D03*
X142863000Y-79776000D03*
X142863000Y-82316000D03*
X142863000Y-84856000D03*
X142863000Y-87396000D03*
X142863000Y-89936000D03*
X142863000Y-92476000D03*
X142863000Y-95016000D03*
X142863000Y-97556000D03*
X127623000Y-97556000D03*
X127623000Y-95016000D03*
X127623000Y-92476000D03*
X127623000Y-89936000D03*
X127623000Y-87396000D03*
X127623000Y-84856000D03*
X127623000Y-82316000D03*
X127623000Y-79776000D03*
X127623000Y-77236000D03*
X127623000Y-74696000D03*
X127623000Y-72156000D03*
X127623000Y-69616000D03*
X127623000Y-67076000D03*
D13*
X127623000Y-64536000D03*
%TD*%
D14*
%TO.C,U2*%
X104140000Y-117690000D03*
X104140000Y-115150000D03*
X104140000Y-112610000D03*
X104140000Y-110070000D03*
X104140000Y-107530000D03*
X104140000Y-104990000D03*
X104140000Y-102450000D03*
X104140000Y-99910000D03*
X104140000Y-97370000D03*
X104140000Y-94830000D03*
X104140000Y-92290000D03*
X104140000Y-89750000D03*
X104140000Y-87210000D03*
X104140000Y-84670000D03*
X104140000Y-82130000D03*
X104140000Y-79590000D03*
X104140000Y-77050000D03*
X104140000Y-74510000D03*
X104140000Y-71970000D03*
X104140000Y-69430000D03*
X119380000Y-69430000D03*
X119380000Y-71970000D03*
X119380000Y-74510000D03*
X119380000Y-77050000D03*
X119380000Y-79590000D03*
X119380000Y-82130000D03*
X119380000Y-84670000D03*
X119380000Y-87210000D03*
X119380000Y-89750000D03*
X119380000Y-92290000D03*
X119380000Y-94830000D03*
X119380000Y-97370000D03*
X119380000Y-99910000D03*
X119380000Y-102450000D03*
X119380000Y-104990000D03*
X119380000Y-107530000D03*
X119380000Y-110070000D03*
X119380000Y-112610000D03*
X119380000Y-115150000D03*
D15*
X119380000Y-117690000D03*
%TD*%
D11*
%TO.C,J6*%
X129540000Y-104140000D03*
D10*
X127000000Y-104140000D03*
%TD*%
D11*
%TO.C,J5*%
X137160000Y-104140000D03*
D10*
X139700000Y-104140000D03*
%TD*%
D11*
%TO.C,J4*%
X134620000Y-109220000D03*
D10*
X137160000Y-109220000D03*
X139700000Y-109220000D03*
%TD*%
D11*
%TO.C,J2*%
X96520000Y-81280000D03*
D10*
X96520000Y-83820000D03*
X96520000Y-86360000D03*
%TD*%
D11*
%TO.C,J1*%
X96520000Y-91440000D03*
D10*
X96520000Y-93980000D03*
X96520000Y-96520000D03*
%TD*%
%LPD*%
M02*
